<svg xmlns="http://www.w3.org/2000/svg" xmlns:xlink="http://www.w3.org/1999/xlink" width="64" viewBox="0 0 48 48" height="64" preserveAspectRatio="xMidYMid meet"><defs><clipPath id="89824a730b"><path d="M 1.78125 3.878906 L 45.863281 3.878906 L 45.863281 42.082031 L 1.78125 42.082031 Z M 1.78125 3.878906 " clip-rule="nonzero"></path></clipPath></defs><g clip-path="url(#89824a730b)"><path fill="#622627" d="M 42.480469 40.828125 L 45.152344 40.828125 C 45.5625 40.828125 45.894531 41.160156 45.894531 41.570312 C 45.894531 41.980469 45.5625 42.3125 45.152344 42.3125 L 2.855469 42.3125 C 2.445312 42.3125 2.113281 41.980469 2.113281 41.570312 C 2.113281 41.160156 2.445312 40.828125 2.855469 40.828125 L 5.527344 40.828125 L 5.527344 22.960938 C 6.09375 23.109375 6.691406 23.1875 7.304688 23.1875 C 9.566406 23.1875 11.578125 22.121094 12.871094 20.46875 C 14.160156 22.121094 16.171875 23.1875 18.433594 23.1875 C 20.703125 23.1875 22.714844 22.121094 24.003906 20.46875 C 25.296875 22.121094 27.3125 23.1875 29.574219 23.1875 C 31.835938 23.1875 33.847656 22.121094 35.136719 20.46875 C 36.425781 22.121094 38.441406 23.1875 40.703125 23.1875 C 41.316406 23.1875 41.914062 23.109375 42.480469 22.960938 Z M 29.429688 40.828125 L 39.597656 40.828125 L 39.597656 26.605469 C 39.597656 26.082031 39.183594 25.652344 38.679688 25.652344 L 30.335938 25.652344 C 29.832031 25.652344 29.429688 26.082031 29.429688 26.605469 Z M 8.316406 32.617188 L 26.769531 32.617188 L 26.769531 25.191406 C 26.769531 24.851562 26.492188 24.570312 26.148438 24.570312 L 8.9375 24.570312 C 8.59375 24.570312 8.316406 24.851562 8.316406 25.191406 Z M 26.769531 34.195312 L 8.316406 34.195312 L 8.316406 36.367188 C 8.316406 36.535156 8.382812 36.691406 8.5 36.808594 C 8.613281 36.925781 8.773438 36.988281 8.9375 36.988281 L 26.148438 36.988281 C 26.3125 36.988281 26.472656 36.925781 26.589844 36.808594 C 26.703125 36.691406 26.769531 36.535156 26.769531 36.367188 Z M 2.121094 15.398438 L 7.871094 4.375 C 8.03125 4.058594 8.332031 3.878906 8.683594 3.878906 L 15.332031 3.878906 L 12.300781 15.398438 Z M 16.84375 3.878906 L 23.261719 3.878906 L 23.261719 15.398438 L 13.835938 15.398438 L 16.816406 4.066406 C 16.835938 4.003906 16.84375 3.941406 16.84375 3.878906 Z M 24.746094 3.878906 L 31.164062 3.878906 C 31.164062 3.941406 31.171875 4.003906 31.191406 4.066406 L 34.171875 15.398438 L 24.746094 15.398438 Z M 32.675781 3.878906 L 39.332031 3.878906 C 39.675781 3.878906 39.972656 4.058594 40.136719 4.375 L 45.886719 15.398438 L 35.707031 15.398438 Z M 46.222656 16.882812 C 45.859375 19.605469 43.523438 21.703125 40.703125 21.703125 C 37.882812 21.703125 35.546875 19.605469 35.183594 16.882812 Z M 35.085938 16.882812 C 34.722656 19.605469 32.394531 21.703125 29.574219 21.703125 C 26.753906 21.703125 24.417969 19.605469 24.054688 16.882812 Z M 23.953125 16.882812 C 23.589844 19.605469 21.261719 21.703125 18.433594 21.703125 C 15.613281 21.703125 13.285156 19.605469 12.921875 16.882812 Z M 12.824219 16.882812 C 12.460938 19.605469 10.125 21.703125 7.304688 21.703125 C 4.484375 21.703125 2.148438 19.605469 1.785156 16.882812 Z M 12.824219 16.882812 " fill-opacity="1" fill-rule="evenodd"></path></g></svg>