<svg xmlns="http://www.w3.org/2000/svg" xmlns:xlink="http://www.w3.org/1999/xlink" width="64" viewBox="0 0 48 48" height="64" preserveAspectRatio="xMidYMid meet"><defs><clipPath id="8c95649a7b"><path d="M 2.625 42 L 45.238281 42 L 45.238281 43.589844 L 2.625 43.589844 Z M 2.625 42 " clip-rule="nonzero"></path></clipPath><clipPath id="1a667566a9"><path d="M 29 2.445312 L 44 2.445312 L 44 22 L 29 22 Z M 29 2.445312 " clip-rule="nonzero"></path></clipPath></defs><path fill="#e5ae58" d="M 13.3125 19.535156 L 11.890625 19.535156 L 11.890625 20.960938 L 13.3125 20.960938 L 13.3125 19.535156 " fill-opacity="1" fill-rule="nonzero"></path><path fill="#e5ae58" d="M 26.84375 37.339844 L 23.996094 37.339844 C 23.601562 37.339844 23.28125 37.019531 23.28125 36.628906 L 23.28125 33.78125 C 23.28125 33.386719 23.601562 33.066406 23.996094 33.066406 L 26.84375 33.066406 C 27.238281 33.066406 27.554688 33.386719 27.554688 33.78125 L 27.554688 36.628906 C 27.554688 37.019531 27.238281 37.339844 26.84375 37.339844 Z M 23.28125 27.371094 C 23.28125 26.976562 23.601562 26.65625 23.996094 26.65625 L 26.84375 26.65625 C 27.238281 26.65625 27.554688 26.976562 27.554688 27.371094 L 27.554688 30.21875 C 27.554688 30.613281 27.238281 30.929688 26.84375 30.929688 L 23.996094 30.929688 C 23.601562 30.929688 23.28125 30.613281 23.28125 30.21875 Z M 28.269531 33.78125 C 28.269531 33.386719 28.585938 33.066406 28.980469 33.066406 L 31.828125 33.066406 C 32.222656 33.066406 32.539062 33.386719 32.539062 33.78125 L 32.539062 36.628906 C 32.539062 37.019531 32.222656 37.339844 31.828125 37.339844 L 28.980469 37.339844 C 28.585938 37.339844 28.269531 37.019531 28.269531 36.628906 Z M 28.269531 27.371094 C 28.269531 26.976562 28.585938 26.65625 28.980469 26.65625 L 31.828125 26.65625 C 32.222656 26.65625 32.539062 26.976562 32.539062 27.371094 L 32.539062 30.21875 C 32.539062 30.613281 32.222656 30.929688 31.828125 30.929688 L 28.980469 30.929688 C 28.585938 30.929688 28.269531 30.613281 28.269531 30.21875 Z M 22.570312 30.21875 C 22.570312 30.613281 22.253906 30.929688 21.859375 30.929688 L 19.011719 30.929688 C 18.617188 30.929688 18.296875 30.613281 18.296875 30.21875 L 18.296875 27.371094 C 18.296875 26.976562 18.617188 26.65625 19.011719 26.65625 L 21.859375 26.65625 C 22.253906 26.65625 22.570312 26.976562 22.570312 27.371094 Z M 33.253906 41.613281 L 33.253906 24.523438 L 17.585938 24.523438 L 17.585938 32.355469 L 18.476562 32.355469 C 18.972656 32.355469 19.398438 32.648438 19.601562 33.066406 L 21.859375 33.066406 C 22.253906 33.066406 22.570312 33.386719 22.570312 33.78125 L 22.570312 36.628906 C 22.570312 37.019531 22.253906 37.339844 21.859375 37.339844 L 19.722656 37.339844 L 19.722656 41.613281 L 23.28125 41.613281 L 23.28125 38.765625 C 23.28125 38.371094 23.601562 38.050781 23.996094 38.050781 L 26.84375 38.050781 C 27.238281 38.050781 27.554688 38.371094 27.554688 38.765625 L 27.554688 41.613281 L 33.253906 41.613281 " fill-opacity="1" fill-rule="nonzero"></path><path fill="#e5ae58" d="M 24.707031 35.914062 L 26.132812 35.914062 L 26.132812 34.492188 L 24.707031 34.492188 L 24.707031 35.914062 " fill-opacity="1" fill-rule="nonzero"></path><path fill="#e5ae58" d="M 26.132812 41.613281 L 26.132812 39.476562 L 24.707031 39.476562 L 24.707031 41.613281 L 26.132812 41.613281 " fill-opacity="1" fill-rule="nonzero"></path><path fill="#e5ae58" d="M 13.3125 13.839844 L 11.890625 13.839844 L 11.890625 15.265625 L 13.3125 15.265625 L 13.3125 13.839844 " fill-opacity="1" fill-rule="nonzero"></path><path fill="#e5ae58" d="M 19.011719 19.535156 L 17.585938 19.535156 L 17.585938 20.960938 L 19.011719 20.960938 L 19.011719 19.535156 " fill-opacity="1" fill-rule="nonzero"></path><path fill="#e5ae58" d="M 19.011719 13.839844 L 17.585938 13.839844 L 17.585938 15.265625 L 19.011719 15.265625 L 19.011719 13.839844 " fill-opacity="1" fill-rule="nonzero"></path><path fill="#e5ae58" d="M 19.722656 34.492188 L 19.722656 35.914062 L 21.148438 35.914062 L 21.148438 34.492188 L 19.722656 34.492188 " fill-opacity="1" fill-rule="nonzero"></path><path fill="#e5ae58" d="M 38.949219 36.628906 L 37.527344 36.628906 L 37.527344 38.050781 L 38.949219 38.050781 L 38.949219 36.628906 " fill-opacity="1" fill-rule="nonzero"></path><path fill="#e5ae58" d="M 26.132812 28.082031 L 24.707031 28.082031 L 24.707031 29.507812 L 26.132812 29.507812 L 26.132812 28.082031 " fill-opacity="1" fill-rule="nonzero"></path><path fill="#e5ae58" d="M 36.101562 35.914062 C 36.101562 35.523438 36.421875 35.203125 36.8125 35.203125 L 39.664062 35.203125 C 40.054688 35.203125 40.375 35.523438 40.375 35.914062 L 40.375 38.765625 C 40.375 39.15625 40.054688 39.476562 39.664062 39.476562 L 36.8125 39.476562 C 36.421875 39.476562 36.101562 39.15625 36.101562 38.765625 Z M 36.101562 30.929688 C 36.101562 30.539062 36.421875 30.21875 36.8125 30.21875 L 39.664062 30.21875 C 40.054688 30.21875 40.375 30.539062 40.375 30.929688 L 40.375 33.78125 C 40.375 34.171875 40.054688 34.492188 39.664062 34.492188 L 36.8125 34.492188 C 36.421875 34.492188 36.101562 34.171875 36.101562 33.78125 Z M 34.675781 41.613281 L 41.085938 41.613281 L 41.085938 29.507812 L 34.675781 29.507812 L 34.675781 41.613281 " fill-opacity="1" fill-rule="nonzero"></path><path fill="#e5ae58" d="M 38.949219 31.644531 L 37.527344 31.644531 L 37.527344 33.066406 L 38.949219 33.066406 L 38.949219 31.644531 " fill-opacity="1" fill-rule="nonzero"></path><path fill="#e5ae58" d="M 31.117188 34.492188 L 29.691406 34.492188 L 29.691406 35.914062 L 31.117188 35.914062 L 31.117188 34.492188 " fill-opacity="1" fill-rule="nonzero"></path><path fill="#e5ae58" d="M 31.117188 28.082031 L 29.691406 28.082031 L 29.691406 29.507812 L 31.117188 29.507812 L 31.117188 28.082031 " fill-opacity="1" fill-rule="nonzero"></path><path fill="#e5ae58" d="M 19.722656 29.507812 L 21.148438 29.507812 L 21.148438 28.082031 L 19.722656 28.082031 L 19.722656 29.507812 " fill-opacity="1" fill-rule="nonzero"></path><path fill="#e5ae58" d="M 19.722656 6.71875 C 19.722656 6.324219 19.402344 6.007812 19.011719 6.007812 L 11.890625 6.007812 C 11.496094 6.007812 11.175781 6.324219 11.175781 6.71875 L 11.175781 8.144531 L 19.722656 8.144531 L 19.722656 6.71875 " fill-opacity="1" fill-rule="nonzero"></path><path fill="#e5ae58" d="M 15.449219 37.339844 L 15.449219 35.914062 L 14.027344 35.914062 L 14.027344 37.339844 L 15.449219 37.339844 " fill-opacity="1" fill-rule="nonzero"></path><path fill="#e5ae58" d="M 12.601562 37.339844 L 12.601562 35.914062 L 11.175781 35.914062 L 11.175781 37.339844 L 12.601562 37.339844 " fill-opacity="1" fill-rule="nonzero"></path><path fill="#e5ae58" d="M 18.296875 37.339844 L 18.296875 35.914062 L 16.875 35.914062 L 16.875 37.339844 L 18.296875 37.339844 " fill-opacity="1" fill-rule="nonzero"></path><path fill="#e5ae58" d="M 18.296875 33.78125 L 5.480469 33.78125 L 5.480469 34.492188 L 18.296875 34.492188 L 18.296875 33.78125 " fill-opacity="1" fill-rule="nonzero"></path><path fill="#e5ae58" d="M 21.859375 10.277344 L 21.859375 9.566406 L 9.039062 9.566406 L 9.039062 10.277344 L 21.859375 10.277344 " fill-opacity="1" fill-rule="nonzero"></path><path fill="#e5ae58" d="M 9.753906 37.339844 L 9.753906 35.914062 L 8.328125 35.914062 L 8.328125 37.339844 L 9.753906 37.339844 " fill-opacity="1" fill-rule="nonzero"></path><path fill="#e5ae58" d="M 6.902344 40.1875 C 6.902344 39.796875 7.222656 39.476562 7.617188 39.476562 L 10.464844 39.476562 C 10.859375 39.476562 11.175781 39.796875 11.175781 40.1875 L 11.175781 41.613281 L 18.296875 41.613281 L 18.296875 38.765625 L 5.480469 38.765625 L 5.480469 41.613281 L 6.902344 41.613281 L 6.902344 40.1875 " fill-opacity="1" fill-rule="nonzero"></path><path fill="#e5ae58" d="M 6.902344 35.914062 L 5.480469 35.914062 L 5.480469 37.339844 L 6.902344 37.339844 L 6.902344 35.914062 " fill-opacity="1" fill-rule="nonzero"></path><g clip-path="url(#8c95649a7b)"><path fill="#e5ae58" d="M 2.632812 42.324219 L 2.632812 43.75 L 45.359375 43.75 L 45.359375 42.324219 L 2.632812 42.324219 " fill-opacity="1" fill-rule="nonzero"></path></g><path fill="#e5ae58" d="M 11.890625 26.65625 L 13.3125 26.65625 L 13.3125 25.234375 L 11.890625 25.234375 L 11.890625 26.65625 " fill-opacity="1" fill-rule="nonzero"></path><path fill="#e5ae58" d="M 9.753906 41.613281 L 9.753906 40.902344 L 8.328125 40.902344 L 8.328125 41.613281 L 9.753906 41.613281 " fill-opacity="1" fill-rule="nonzero"></path><path fill="#e5ae58" d="M 13.3125 32.355469 L 13.3125 30.929688 L 11.890625 30.929688 L 11.890625 32.355469 L 13.3125 32.355469 " fill-opacity="1" fill-rule="nonzero"></path><path fill="#e5ae58" d="M 14.027344 28.082031 L 11.175781 28.082031 C 10.785156 28.082031 10.464844 27.761719 10.464844 27.371094 L 10.464844 24.523438 C 10.464844 24.128906 10.785156 23.808594 11.175781 23.808594 L 14.027344 23.808594 C 14.417969 23.808594 14.738281 24.128906 14.738281 24.523438 L 14.738281 27.371094 C 14.738281 27.761719 14.417969 28.082031 14.027344 28.082031 Z M 10.464844 18.824219 C 10.464844 18.429688 10.785156 18.113281 11.175781 18.113281 L 14.027344 18.113281 C 14.417969 18.113281 14.738281 18.429688 14.738281 18.824219 L 14.738281 21.671875 C 14.738281 22.066406 14.417969 22.386719 14.027344 22.386719 L 11.175781 22.386719 C 10.785156 22.386719 10.464844 22.066406 10.464844 21.671875 Z M 10.464844 13.128906 C 10.464844 12.734375 10.785156 12.414062 11.175781 12.414062 L 14.027344 12.414062 C 14.417969 12.414062 14.738281 12.734375 14.738281 13.128906 L 14.738281 15.976562 C 14.738281 16.371094 14.417969 16.6875 14.027344 16.6875 L 11.175781 16.6875 C 10.785156 16.6875 10.464844 16.371094 10.464844 15.976562 Z M 16.160156 18.824219 C 16.160156 18.429688 16.480469 18.113281 16.875 18.113281 L 19.722656 18.113281 C 20.117188 18.113281 20.433594 18.429688 20.433594 18.824219 L 20.433594 21.671875 C 20.433594 22.066406 20.117188 22.386719 19.722656 22.386719 L 16.875 22.386719 C 16.480469 22.386719 16.160156 22.066406 16.160156 21.671875 Z M 16.160156 13.128906 C 16.160156 12.734375 16.480469 12.414062 16.875 12.414062 L 19.722656 12.414062 C 20.117188 12.414062 20.433594 12.734375 20.433594 13.128906 L 20.433594 15.976562 C 20.433594 16.371094 20.117188 16.6875 19.722656 16.6875 L 16.875 16.6875 C 16.480469 16.6875 16.160156 16.371094 16.160156 15.976562 Z M 16.160156 32.355469 L 16.160156 23.808594 C 16.160156 23.417969 16.480469 23.097656 16.875 23.097656 L 21.148438 23.097656 L 21.148438 11.703125 L 9.753906 11.703125 L 9.753906 32.355469 L 10.464844 32.355469 L 10.464844 30.21875 C 10.464844 29.824219 10.785156 29.507812 11.175781 29.507812 L 14.027344 29.507812 C 14.417969 29.507812 14.738281 29.824219 14.738281 30.21875 L 14.738281 32.355469 L 16.160156 32.355469 " fill-opacity="1" fill-rule="nonzero"></path><path fill="#e5ae58" d="M 41.085938 9.566406 C 41.085938 7.210938 39.167969 5.292969 36.8125 5.292969 C 34.457031 5.292969 32.539062 7.210938 32.539062 9.566406 C 32.539062 11.921875 34.457031 13.839844 36.8125 13.839844 C 39.167969 13.839844 41.085938 11.921875 41.085938 9.566406 " fill-opacity="1" fill-rule="nonzero"></path><g clip-path="url(#1a667566a9)"><path fill="#e5ae58" d="M 31.117188 9.566406 C 31.117188 6.425781 33.671875 3.871094 36.8125 3.871094 C 39.953125 3.871094 42.511719 6.425781 42.511719 9.566406 C 42.511719 12.707031 39.953125 15.265625 36.8125 15.265625 C 33.671875 15.265625 31.117188 12.707031 31.117188 9.566406 Z M 43.933594 9.566406 C 43.933594 5.640625 40.742188 2.445312 36.8125 2.445312 C 32.886719 2.445312 29.691406 5.640625 29.691406 9.566406 C 29.691406 12.648438 34.414062 19.050781 36.8125 21.984375 C 39.214844 19.050781 43.933594 12.644531 43.933594 9.566406 " fill-opacity="1" fill-rule="nonzero"></path></g></svg>