<svg xmlns="http://www.w3.org/2000/svg" xmlns:xlink="http://www.w3.org/1999/xlink" width="64" viewBox="0 0 48 48" height="64" preserveAspectRatio="xMidYMid meet"><defs><clipPath id="2e8f6ba345"><path d="M 5.863281 39 L 37 39 L 37 43.589844 L 5.863281 43.589844 Z M 5.863281 39 " clip-rule="nonzero"></path></clipPath><clipPath id="3d02da41a1"><path d="M 5.863281 21 L 41.863281 21 L 41.863281 42 L 5.863281 42 Z M 5.863281 21 " clip-rule="nonzero"></path></clipPath><clipPath id="8400d4a26a"><path d="M 19 2.445312 L 23 2.445312 L 23 20 L 19 20 Z M 19 2.445312 " clip-rule="nonzero"></path></clipPath></defs><g clip-path="url(#2e8f6ba345)"><path fill="#622627" d="M 36.21875 39.703125 C 36.21875 41.929688 29.425781 43.726562 21.042969 43.726562 C 12.664062 43.726562 5.863281 41.921875 5.863281 39.703125 " fill-opacity="1" fill-rule="nonzero"></path></g><g clip-path="url(#3d02da41a1)"><path fill="#622627" d="M 40.238281 26.203125 C 39.167969 25.117188 37.59375 24.746094 36.003906 25.050781 C 36.144531 23.945312 36.21875 22.808594 36.21875 21.648438 L 5.863281 21.648438 C 5.863281 32.730469 12.65625 41.714844 21.035156 41.714844 C 25.480469 41.714844 29.476562 39.195312 32.246094 35.171875 C 34.207031 36.492188 37.214844 36.011719 39.351562 33.917969 C 41.730469 31.585938 42.128906 28.125 40.238281 26.203125 Z M 39.902344 30.308594 C 39.761719 31.546875 39.136719 32.757812 38.148438 33.730469 C 37.15625 34.703125 35.929688 35.304688 34.691406 35.417969 C 33.828125 35.5 33.035156 35.335938 32.402344 34.949219 C 33.992188 32.574219 35.171875 29.691406 35.765625 26.507812 C 35.878906 26.492188 36.003906 26.476562 36.117188 26.460938 C 37.28125 26.351562 38.304688 26.683594 39.011719 27.398438 C 39.710938 28.117188 40.035156 29.15625 39.902344 30.308594 Z M 39.902344 30.308594 " fill-opacity="1" fill-rule="nonzero"></path></g><g clip-path="url(#8400d4a26a)"><path fill="#622627" d="M 21.117188 2.589844 C 21.09375 2.542969 21.042969 2.527344 21.003906 2.542969 C 20.960938 2.550781 20.921875 2.582031 20.886719 2.609375 C 20.855469 2.640625 20.820312 2.675781 20.804688 2.714844 C 20.796875 2.730469 20.789062 2.757812 20.78125 2.773438 L 20.757812 2.839844 C 20.683594 3.027344 20.617188 3.21875 20.558594 3.40625 C 20.441406 3.785156 20.359375 4.164062 20.320312 4.546875 C 20.277344 4.914062 20.292969 5.285156 20.359375 5.625 C 20.386719 5.707031 20.394531 5.789062 20.425781 5.871094 L 20.46875 5.996094 L 20.515625 6.109375 C 20.574219 6.269531 20.664062 6.414062 20.746094 6.5625 C 20.839844 6.710938 20.945312 6.859375 21.0625 7.019531 L 21.425781 7.488281 C 21.546875 7.652344 21.679688 7.824219 21.804688 8.007812 C 21.925781 8.195312 22.042969 8.386719 22.148438 8.582031 C 22.363281 8.988281 22.535156 9.414062 22.644531 9.878906 C 22.757812 10.339844 22.792969 10.84375 22.734375 11.328125 C 22.703125 11.574219 22.652344 11.804688 22.59375 12.035156 C 22.527344 12.269531 22.445312 12.480469 22.363281 12.695312 C 22.183594 13.117188 21.96875 13.496094 21.746094 13.859375 C 21.523438 14.222656 21.300781 14.550781 21.085938 14.878906 C 20.980469 15.046875 20.878906 15.210938 20.78125 15.375 C 20.683594 15.539062 20.589844 15.695312 20.515625 15.859375 C 20.433594 16.027344 20.359375 16.191406 20.304688 16.355469 C 20.246094 16.519531 20.195312 16.695312 20.15625 16.859375 C 20.089844 17.195312 20.082031 17.550781 20.144531 17.90625 C 20.179688 18.078125 20.230469 18.25 20.304688 18.417969 C 20.378906 18.582031 20.46875 18.738281 20.582031 18.878906 C 20.609375 18.917969 20.648438 18.945312 20.675781 18.976562 C 20.691406 18.992188 20.707031 19.007812 20.722656 19.027344 L 20.773438 19.066406 C 20.839844 19.125 20.9375 19.191406 21.019531 19.273438 C 21.101562 19.355469 21.167969 19.4375 21.21875 19.546875 C 21.242188 19.59375 21.257812 19.660156 21.25 19.71875 C 21.242188 19.777344 21.203125 19.824219 21.160156 19.851562 C 21.191406 19.808594 21.203125 19.757812 21.191406 19.71875 C 21.183594 19.675781 21.160156 19.644531 21.128906 19.609375 C 21.0625 19.546875 20.980469 19.496094 20.894531 19.453125 C 20.804688 19.414062 20.730469 19.386719 20.617188 19.347656 L 20.542969 19.3125 C 20.515625 19.304688 20.492188 19.289062 20.46875 19.273438 C 20.417969 19.25 20.367188 19.222656 20.320312 19.191406 C 19.933594 18.945312 19.644531 18.554688 19.453125 18.136719 C 19.363281 17.921875 19.289062 17.699219 19.246094 17.476562 C 19.207031 17.246094 19.183594 17.015625 19.183594 16.777344 C 19.183594 16.535156 19.214844 16.3125 19.257812 16.082031 C 19.296875 15.859375 19.355469 15.636719 19.429688 15.425781 C 19.570312 14.996094 19.75 14.601562 19.949219 14.230469 C 20.136719 13.851562 20.34375 13.496094 20.527344 13.15625 C 20.886719 12.472656 21.191406 11.804688 21.265625 11.164062 C 21.339844 10.535156 21.183594 9.859375 20.894531 9.203125 C 20.820312 9.035156 20.738281 8.871094 20.648438 8.714844 C 20.558594 8.558594 20.460938 8.394531 20.351562 8.222656 C 20.136719 7.882812 19.90625 7.511719 19.71875 7.09375 C 19.617188 6.878906 19.542969 6.65625 19.488281 6.414062 C 19.429688 6.183594 19.40625 5.945312 19.394531 5.707031 C 19.386719 5.238281 19.46875 4.785156 19.617188 4.371094 C 19.765625 3.960938 19.957031 3.574219 20.195312 3.21875 C 20.3125 3.046875 20.433594 2.871094 20.574219 2.714844 L 20.625 2.65625 C 20.648438 2.632812 20.664062 2.609375 20.691406 2.589844 C 20.738281 2.550781 20.789062 2.527344 20.839844 2.5 C 20.886719 2.476562 20.953125 2.46875 21.011719 2.46875 C 21.042969 2.46875 21.070312 2.484375 21.09375 2.5 C 21.101562 2.542969 21.109375 2.566406 21.117188 2.589844 Z M 21.117188 2.589844 " fill-opacity="1" fill-rule="nonzero"></path></g><path fill="#622627" d="M 25.628906 7.675781 C 25.601562 7.644531 25.570312 7.644531 25.554688 7.652344 C 25.527344 7.660156 25.503906 7.683594 25.488281 7.703125 C 25.46875 7.726562 25.453125 7.75 25.445312 7.777344 C 25.4375 7.785156 25.4375 7.800781 25.4375 7.808594 L 25.421875 7.859375 C 25.378906 7.988281 25.347656 8.113281 25.320312 8.246094 C 25.265625 8.5 25.230469 8.757812 25.222656 8.996094 C 25.214844 9.234375 25.238281 9.464844 25.296875 9.671875 C 25.332031 9.769531 25.363281 9.871094 25.40625 9.960938 C 25.445312 10.050781 25.503906 10.132812 25.5625 10.222656 C 25.617188 10.3125 25.691406 10.40625 25.765625 10.496094 L 26.015625 10.800781 C 26.097656 10.90625 26.195312 11.023438 26.277344 11.15625 C 26.359375 11.277344 26.441406 11.410156 26.527344 11.550781 C 26.675781 11.832031 26.804688 12.128906 26.878906 12.457031 C 26.960938 12.785156 26.988281 13.140625 26.945312 13.503906 C 26.921875 13.675781 26.886719 13.851562 26.847656 14.015625 C 26.796875 14.179688 26.738281 14.328125 26.683594 14.476562 C 26.558594 14.765625 26.402344 15.027344 26.253906 15.269531 C 26.097656 15.507812 25.949219 15.730469 25.800781 15.933594 C 25.726562 16.042969 25.660156 16.140625 25.59375 16.25 C 25.527344 16.347656 25.46875 16.445312 25.414062 16.554688 C 25.363281 16.652344 25.304688 16.75 25.265625 16.859375 C 25.222656 16.957031 25.183594 17.0625 25.15625 17.164062 C 25.109375 17.359375 25.082031 17.582031 25.109375 17.796875 C 25.117188 17.90625 25.140625 18.011719 25.175781 18.121094 C 25.207031 18.226562 25.257812 18.324219 25.320312 18.425781 C 25.339844 18.449219 25.355469 18.464844 25.371094 18.492188 C 25.386719 18.515625 25.414062 18.53125 25.429688 18.554688 C 25.460938 18.597656 25.535156 18.648438 25.585938 18.703125 C 25.636719 18.761719 25.683594 18.828125 25.710938 18.902344 C 25.726562 18.945312 25.734375 18.984375 25.726562 19.027344 C 25.71875 19.066406 25.683594 19.101562 25.652344 19.117188 C 25.667969 19.082031 25.675781 19.050781 25.660156 19.027344 C 25.652344 19 25.636719 18.984375 25.609375 18.960938 C 25.5625 18.925781 25.511719 18.902344 25.453125 18.878906 C 25.394531 18.851562 25.347656 18.851562 25.265625 18.820312 C 25.222656 18.8125 25.191406 18.796875 25.15625 18.777344 C 25.125 18.761719 25.082031 18.746094 25.050781 18.722656 C 24.769531 18.5625 24.546875 18.300781 24.40625 18.011719 C 24.332031 17.863281 24.285156 17.707031 24.242188 17.550781 C 24.203125 17.394531 24.183594 17.230469 24.183594 17.054688 C 24.183594 16.882812 24.203125 16.726562 24.226562 16.570312 C 24.25 16.414062 24.285156 16.257812 24.332031 16.109375 C 24.382812 15.960938 24.433594 15.820312 24.488281 15.679688 C 24.546875 15.539062 24.605469 15.40625 24.671875 15.285156 C 24.792969 15.027344 24.925781 14.789062 25.042969 14.566406 C 25.273438 14.113281 25.445312 13.703125 25.488281 13.339844 C 25.527344 12.984375 25.445312 12.589844 25.273438 12.175781 C 25.183594 11.972656 25.082031 11.78125 24.953125 11.550781 C 24.820312 11.320312 24.664062 11.074219 24.539062 10.769531 C 24.472656 10.621094 24.425781 10.453125 24.390625 10.28125 C 24.351562 10.117188 24.339844 9.945312 24.339844 9.777344 C 24.351562 9.449219 24.414062 9.136719 24.53125 8.847656 C 24.644531 8.566406 24.792969 8.3125 24.96875 8.082031 C 25.058594 7.964844 25.148438 7.859375 25.246094 7.757812 L 25.289062 7.71875 C 25.304688 7.703125 25.320312 7.683594 25.339844 7.675781 C 25.371094 7.652344 25.414062 7.636719 25.445312 7.621094 C 25.488281 7.609375 25.527344 7.601562 25.570312 7.601562 C 25.59375 7.609375 25.609375 7.621094 25.628906 7.636719 C 25.617188 7.644531 25.617188 7.660156 25.628906 7.675781 Z M 25.628906 7.675781 " fill-opacity="1" fill-rule="nonzero"></path><path fill="#622627" d="M 16.429688 12.414062 C 16.414062 12.398438 16.394531 12.40625 16.386719 12.414062 C 16.378906 12.425781 16.371094 12.441406 16.363281 12.457031 C 16.355469 12.472656 16.355469 12.488281 16.347656 12.5 C 16.347656 12.507812 16.347656 12.515625 16.347656 12.515625 C 16.347656 12.523438 16.347656 12.53125 16.347656 12.546875 C 16.339844 12.628906 16.332031 12.710938 16.320312 12.785156 C 16.3125 12.945312 16.3125 13.09375 16.332031 13.222656 C 16.347656 13.355469 16.378906 13.472656 16.429688 13.5625 C 16.453125 13.601562 16.480469 13.652344 16.503906 13.683594 C 16.527344 13.71875 16.5625 13.75 16.59375 13.792969 C 16.667969 13.867188 16.757812 13.964844 16.867188 14.089844 C 16.972656 14.210938 17.105469 14.378906 17.203125 14.550781 C 17.304688 14.730469 17.394531 14.929688 17.453125 15.144531 C 17.507812 15.367188 17.527344 15.613281 17.5 15.851562 C 17.484375 15.976562 17.460938 16.09375 17.433594 16.199219 C 17.402344 16.304688 17.359375 16.40625 17.320312 16.503906 C 17.238281 16.695312 17.136719 16.859375 17.039062 17 C 16.839844 17.285156 16.660156 17.492188 16.519531 17.691406 C 16.378906 17.886719 16.28125 18.046875 16.257812 18.285156 C 16.246094 18.34375 16.246094 18.398438 16.257812 18.457031 C 16.265625 18.515625 16.273438 18.574219 16.296875 18.628906 C 16.304688 18.65625 16.320312 18.6875 16.339844 18.722656 C 16.347656 18.746094 16.394531 18.785156 16.421875 18.828125 C 16.445312 18.871094 16.480469 18.917969 16.488281 18.96875 C 16.496094 18.992188 16.496094 19.027344 16.488281 19.058594 C 16.480469 19.09375 16.453125 19.109375 16.429688 19.109375 C 16.4375 19.082031 16.4375 19.066406 16.421875 19.058594 C 16.414062 19.050781 16.394531 19.042969 16.378906 19.035156 C 16.347656 19.027344 16.3125 19.019531 16.28125 19.007812 C 16.246094 19 16.222656 19.007812 16.164062 18.992188 C 16.117188 18.984375 16.066406 18.960938 16.015625 18.945312 C 15.820312 18.859375 15.664062 18.695312 15.554688 18.507812 C 15.449219 18.316406 15.382812 18.109375 15.367188 17.878906 C 15.359375 17.765625 15.367188 17.65625 15.375 17.558594 C 15.382812 17.453125 15.40625 17.351562 15.433594 17.253906 C 15.53125 16.867188 15.695312 16.546875 15.8125 16.289062 C 15.933594 16.035156 16.007812 15.820312 16.015625 15.679688 C 16.027344 15.613281 16.027344 15.539062 16.007812 15.457031 C 16 15.375 15.96875 15.277344 15.933594 15.167969 C 15.917969 15.121094 15.894531 15.0625 15.867188 15.003906 C 15.84375 14.953125 15.820312 14.886719 15.777344 14.824219 C 15.710938 14.683594 15.621094 14.527344 15.546875 14.320312 C 15.515625 14.222656 15.480469 14.105469 15.457031 13.988281 C 15.441406 13.875 15.433594 13.757812 15.441406 13.652344 C 15.457031 13.429688 15.523438 13.230469 15.605469 13.058594 C 15.695312 12.886719 15.804688 12.738281 15.933594 12.605469 C 16 12.539062 16.066406 12.480469 16.132812 12.433594 C 16.140625 12.425781 16.148438 12.425781 16.15625 12.40625 C 16.171875 12.398438 16.183594 12.390625 16.199219 12.382812 C 16.222656 12.367188 16.246094 12.359375 16.273438 12.351562 C 16.296875 12.34375 16.332031 12.34375 16.355469 12.351562 C 16.421875 12.359375 16.4375 12.390625 16.429688 12.414062 Z M 16.429688 12.414062 " fill-opacity="1" fill-rule="nonzero"></path></svg>