<svg xmlns="http://www.w3.org/2000/svg" xmlns:xlink="http://www.w3.org/1999/xlink" width="64" viewBox="0 0 48 48" height="64" preserveAspectRatio="xMidYMid meet"><defs><clipPath id="d5beea73f9"><path d="M 3.238281 20 L 19 20 L 19 37 L 3.238281 37 Z M 3.238281 20 " clip-rule="nonzero"></path></clipPath><clipPath id="7d4827a5e2"><path d="M 13 2.445312 L 22 2.445312 L 22 12 L 13 12 Z M 13 2.445312 " clip-rule="nonzero"></path></clipPath><clipPath id="f6ede3cf80"><path d="M 26 2.445312 L 35 2.445312 L 35 12 L 26 12 Z M 26 2.445312 " clip-rule="nonzero"></path></clipPath><clipPath id="7345a0df3d"><path d="M 23 35 L 25 35 L 25 45.058594 L 23 45.058594 Z M 23 35 " clip-rule="nonzero"></path></clipPath></defs><path fill="#e5ae58" d="M 36.160156 19.632812 C 33.789062 19.632812 31.863281 17.707031 31.863281 15.339844 C 31.863281 12.96875 33.789062 11.042969 36.160156 11.042969 C 38.527344 11.042969 40.453125 12.96875 40.453125 15.339844 C 40.453125 17.707031 38.527344 19.632812 36.160156 19.632812 Z M 36.160156 12.476562 C 34.582031 12.476562 33.296875 13.757812 33.296875 15.339844 C 33.296875 16.917969 34.582031 18.203125 36.160156 18.203125 C 37.738281 18.203125 39.023438 16.917969 39.023438 15.339844 C 39.023438 13.757812 37.738281 12.476562 36.160156 12.476562 Z M 36.160156 12.476562 " fill-opacity="1" fill-rule="nonzero"></path><path fill="#e5ae58" d="M 40.453125 39.679688 C 40.058594 39.679688 39.738281 39.359375 39.738281 38.964844 L 39.738281 25.363281 C 39.738281 24.964844 40.058594 24.644531 40.453125 24.644531 C 40.851562 24.644531 41.171875 24.964844 41.171875 25.363281 L 41.171875 38.964844 C 41.171875 39.359375 40.851562 39.679688 40.453125 39.679688 Z M 40.453125 39.679688 " fill-opacity="1" fill-rule="nonzero"></path><path fill="#e5ae58" d="M 31.863281 42.542969 C 31.46875 42.542969 31.148438 42.222656 31.148438 41.828125 L 31.148438 25.363281 C 31.148438 24.964844 31.46875 24.644531 31.863281 24.644531 C 32.257812 24.644531 32.578125 24.964844 32.578125 25.363281 L 32.578125 41.828125 C 32.578125 42.222656 32.257812 42.542969 31.863281 42.542969 Z M 31.863281 42.542969 " fill-opacity="1" fill-rule="nonzero"></path><path fill="#e5ae58" d="M 36.160156 41.109375 C 35.765625 41.109375 35.445312 40.789062 35.445312 40.394531 L 35.445312 36.101562 C 35.445312 35.703125 35.765625 35.382812 36.160156 35.382812 C 36.554688 35.382812 36.875 35.703125 36.875 36.101562 L 36.875 40.394531 C 36.875 40.789062 36.554688 41.109375 36.160156 41.109375 Z M 36.160156 41.109375 " fill-opacity="1" fill-rule="nonzero"></path><path fill="#e5ae58" d="M 41.886719 36.101562 L 40.453125 36.101562 C 40.058594 36.101562 39.738281 35.777344 39.738281 35.382812 C 39.738281 34.988281 40.058594 34.667969 40.453125 34.667969 L 41.886719 34.667969 C 42.675781 34.667969 43.320312 34.027344 43.320312 33.234375 L 43.320312 25.363281 C 43.320312 23.386719 41.710938 21.78125 39.738281 21.78125 L 32.582031 21.78125 C 31.824219 21.78125 31.105469 22.015625 30.507812 22.453125 C 30.1875 22.683594 29.742188 22.617188 29.507812 22.300781 C 29.273438 21.980469 29.34375 21.53125 29.660156 21.296875 C 30.503906 20.679688 31.515625 20.351562 32.582031 20.351562 L 39.738281 20.351562 C 42.503906 20.351562 44.75 22.597656 44.75 25.363281 L 44.75 33.234375 C 44.75 34.816406 43.464844 36.101562 41.886719 36.101562 Z M 41.886719 36.101562 " fill-opacity="1" fill-rule="nonzero"></path><path fill="#e5ae58" d="M 31.867188 36.101562 L 30.433594 36.101562 C 28.855469 36.101562 27.570312 34.816406 27.570312 33.234375 L 27.570312 31.804688 C 27.570312 31.410156 27.890625 31.089844 28.289062 31.089844 C 28.683594 31.089844 29.003906 31.410156 29.003906 31.804688 L 29.003906 33.234375 C 29.003906 34.027344 29.644531 34.667969 30.433594 34.667969 L 31.867188 34.667969 C 32.261719 34.667969 32.582031 34.988281 32.582031 35.382812 C 32.582031 35.777344 32.261719 36.101562 31.867188 36.101562 Z M 31.867188 36.101562 " fill-opacity="1" fill-rule="nonzero"></path><path fill="#e5ae58" d="M 11.820312 19.632812 C 9.449219 19.632812 7.523438 17.707031 7.523438 15.339844 C 7.523438 12.96875 9.449219 11.042969 11.820312 11.042969 C 14.1875 11.042969 16.117188 12.96875 16.117188 15.339844 C 16.117188 17.707031 14.1875 19.632812 11.820312 19.632812 Z M 11.820312 12.476562 C 10.242188 12.476562 8.957031 13.757812 8.957031 15.339844 C 8.957031 16.917969 10.242188 18.203125 11.820312 18.203125 C 13.398438 18.203125 14.683594 16.917969 14.683594 15.339844 C 14.683594 13.757812 13.398438 12.476562 11.820312 12.476562 Z M 11.820312 12.476562 " fill-opacity="1" fill-rule="nonzero"></path><path fill="#e5ae58" d="M 7.523438 39.679688 C 7.128906 39.679688 6.808594 39.359375 6.808594 38.964844 L 6.808594 25.363281 C 6.808594 24.964844 7.128906 24.644531 7.523438 24.644531 C 7.917969 24.644531 8.242188 24.964844 8.242188 25.363281 L 8.242188 38.964844 C 8.242188 39.359375 7.917969 39.679688 7.523438 39.679688 Z M 7.523438 39.679688 " fill-opacity="1" fill-rule="nonzero"></path><path fill="#e5ae58" d="M 16.117188 42.542969 C 15.71875 42.542969 15.398438 42.222656 15.398438 41.828125 L 15.398438 25.363281 C 15.398438 24.964844 15.71875 24.644531 16.117188 24.644531 C 16.511719 24.644531 16.832031 24.964844 16.832031 25.363281 L 16.832031 41.828125 C 16.832031 42.222656 16.511719 42.542969 16.117188 42.542969 Z M 16.117188 42.542969 " fill-opacity="1" fill-rule="nonzero"></path><path fill="#e5ae58" d="M 11.820312 41.109375 C 11.425781 41.109375 11.105469 40.789062 11.105469 40.394531 L 11.105469 36.101562 C 11.105469 35.703125 11.425781 35.382812 11.820312 35.382812 C 12.214844 35.382812 12.535156 35.703125 12.535156 36.101562 L 12.535156 40.394531 C 12.535156 40.789062 12.214844 41.109375 11.820312 41.109375 Z M 11.820312 41.109375 " fill-opacity="1" fill-rule="nonzero"></path><g clip-path="url(#d5beea73f9)"><path fill="#e5ae58" d="M 7.523438 36.101562 L 6.09375 36.101562 C 4.511719 36.101562 3.230469 34.816406 3.230469 33.234375 L 3.230469 25.363281 C 3.230469 22.597656 5.476562 20.351562 8.242188 20.351562 L 15.402344 20.351562 C 16.46875 20.351562 17.480469 20.679688 18.332031 21.304688 C 18.648438 21.539062 18.71875 21.988281 18.484375 22.304688 C 18.25 22.625 17.800781 22.691406 17.484375 22.460938 C 16.878906 22.015625 16.160156 21.78125 15.402344 21.78125 L 8.242188 21.78125 C 6.265625 21.78125 4.660156 23.386719 4.660156 25.363281 L 4.660156 33.234375 C 4.660156 34.027344 5.304688 34.667969 6.09375 34.667969 L 7.523438 34.667969 C 7.917969 34.667969 8.242188 34.988281 8.242188 35.382812 C 8.242188 35.777344 7.917969 36.101562 7.523438 36.101562 Z M 7.523438 36.101562 " fill-opacity="1" fill-rule="nonzero"></path></g><path fill="#e5ae58" d="M 17.550781 36.101562 L 16.117188 36.101562 C 15.722656 36.101562 15.402344 35.777344 15.402344 35.382812 C 15.402344 34.988281 15.722656 34.667969 16.117188 34.667969 L 17.550781 34.667969 C 18.339844 34.667969 18.980469 34.027344 18.980469 33.234375 L 18.980469 31.804688 C 18.980469 31.410156 19.300781 31.089844 19.695312 31.089844 C 20.09375 31.089844 20.414062 31.410156 20.414062 31.804688 L 20.414062 33.234375 C 20.414062 34.816406 19.128906 36.101562 17.550781 36.101562 Z M 17.550781 36.101562 " fill-opacity="1" fill-rule="nonzero"></path><g clip-path="url(#7d4827a5e2)"><path fill="#e5ae58" d="M 17.554688 11.042969 C 15.1875 11.042969 13.261719 9.117188 13.261719 6.75 C 13.261719 4.378906 15.1875 2.453125 17.554688 2.453125 C 19.925781 2.453125 21.851562 4.378906 21.851562 6.75 C 21.851562 9.117188 19.925781 11.042969 17.554688 11.042969 Z M 17.554688 3.882812 C 15.976562 3.882812 14.691406 5.167969 14.691406 6.75 C 14.691406 8.328125 15.976562 9.613281 17.554688 9.613281 C 19.136719 9.613281 20.417969 8.328125 20.417969 6.75 C 20.417969 5.167969 19.136719 3.882812 17.554688 3.882812 Z M 17.554688 3.882812 " fill-opacity="1" fill-rule="nonzero"></path></g><g clip-path="url(#f6ede3cf80)"><path fill="#e5ae58" d="M 30.441406 11.042969 C 28.074219 11.042969 26.148438 9.117188 26.148438 6.75 C 26.148438 4.378906 28.074219 2.453125 30.441406 2.453125 C 32.8125 2.453125 34.738281 4.378906 34.738281 6.75 C 34.738281 9.117188 32.8125 11.042969 30.441406 11.042969 Z M 30.441406 3.882812 C 28.863281 3.882812 27.578125 5.167969 27.578125 6.75 C 27.578125 8.328125 28.863281 9.613281 30.441406 9.613281 C 32.023438 9.613281 33.304688 8.328125 33.304688 6.75 C 33.304688 5.167969 32.023438 3.882812 30.441406 3.882812 Z M 30.441406 3.882812 " fill-opacity="1" fill-rule="nonzero"></path></g><path fill="#e5ae58" d="M 24 19.632812 C 21.628906 19.632812 19.703125 17.707031 19.703125 15.339844 C 19.703125 12.96875 21.628906 11.042969 24 11.042969 C 26.367188 11.042969 28.292969 12.96875 28.292969 15.339844 C 28.292969 17.707031 26.367188 19.632812 24 19.632812 Z M 24 12.476562 C 22.421875 12.476562 21.136719 13.757812 21.136719 15.339844 C 21.136719 16.917969 22.421875 18.203125 24 18.203125 C 25.578125 18.203125 26.863281 16.917969 26.863281 15.339844 C 26.863281 13.757812 25.578125 12.476562 24 12.476562 Z M 24 12.476562 " fill-opacity="1" fill-rule="nonzero"></path><path fill="#e5ae58" d="M 28.292969 43.976562 C 27.898438 43.976562 27.578125 43.652344 27.578125 43.257812 L 27.578125 32.519531 L 20.417969 32.519531 L 20.417969 43.257812 C 20.417969 43.652344 20.097656 43.976562 19.703125 43.976562 C 19.308594 43.976562 18.988281 43.652344 18.988281 43.257812 L 18.988281 31.804688 C 18.988281 31.410156 19.308594 31.089844 19.703125 31.089844 L 28.292969 31.089844 C 28.691406 31.089844 29.011719 31.410156 29.011719 31.804688 L 29.011719 43.257812 C 29.011719 43.652344 28.691406 43.976562 28.292969 43.976562 Z M 28.292969 43.976562 " fill-opacity="1" fill-rule="nonzero"></path><g clip-path="url(#7345a0df3d)"><path fill="#e5ae58" d="M 24 45.40625 C 23.605469 45.40625 23.285156 45.085938 23.285156 44.691406 L 23.285156 36.101562 C 23.285156 35.703125 23.605469 35.382812 24 35.382812 C 24.394531 35.382812 24.714844 35.703125 24.714844 36.101562 L 24.714844 44.691406 C 24.714844 45.085938 24.394531 45.40625 24 45.40625 Z M 24 45.40625 " fill-opacity="1" fill-rule="nonzero"></path></g><path fill="#e5ae58" d="M 29.726562 32.519531 L 18.273438 32.519531 C 16.691406 32.519531 15.410156 31.234375 15.410156 29.65625 L 15.410156 25.363281 C 15.410156 22.597656 17.65625 20.351562 20.417969 20.351562 L 27.578125 20.351562 C 30.34375 20.351562 32.589844 22.597656 32.589844 25.363281 L 32.589844 29.65625 C 32.589844 31.234375 31.304688 32.519531 29.726562 32.519531 Z M 20.417969 21.78125 C 18.445312 21.78125 16.839844 23.386719 16.839844 25.363281 L 16.839844 29.65625 C 16.839844 30.445312 17.484375 31.089844 18.273438 31.089844 L 29.726562 31.089844 C 30.515625 31.089844 31.160156 30.445312 31.160156 29.65625 L 31.160156 25.363281 C 31.160156 23.386719 29.550781 21.78125 27.578125 21.78125 Z M 20.417969 21.78125 " fill-opacity="1" fill-rule="nonzero"></path><path fill="#e5ae58" d="M 18.988281 28.941406 C 18.941406 28.941406 18.894531 28.9375 18.847656 28.925781 C 18.460938 28.847656 18.207031 28.472656 18.285156 28.085938 L 19.003906 24.503906 C 19.078125 24.117188 19.453125 23.867188 19.84375 23.941406 C 20.234375 24.019531 20.484375 24.398438 20.40625 24.785156 L 19.691406 28.367188 C 19.621094 28.707031 19.324219 28.941406 18.988281 28.941406 Z M 18.988281 28.941406 " fill-opacity="1" fill-rule="nonzero"></path><path fill="#e5ae58" d="M 27.578125 32.519531 C 27.488281 32.519531 27.394531 32.503906 27.304688 32.464844 L 18.714844 28.886719 C 18.398438 28.753906 18.21875 28.417969 18.285156 28.085938 L 18.726562 25.875 C 18.765625 25.6875 18.878906 25.519531 19.042969 25.414062 C 19.203125 25.308594 19.402344 25.273438 19.589844 25.316406 L 28.089844 27.277344 L 27.59375 24.785156 C 27.515625 24.398438 27.765625 24.019531 28.15625 23.941406 C 28.542969 23.867188 28.917969 24.117188 28.996094 24.503906 L 29.710938 28.085938 C 29.761719 28.324219 29.683594 28.570312 29.507812 28.738281 C 29.335938 28.90625 29.085938 28.976562 28.851562 28.921875 L 19.988281 26.878906 L 19.804688 27.789062 L 27.855469 31.144531 C 28.21875 31.296875 28.390625 31.714844 28.238281 32.082031 C 28.125 32.355469 27.859375 32.519531 27.578125 32.519531 Z M 27.578125 32.519531 " fill-opacity="1" fill-rule="nonzero"></path></svg>