<svg xmlns="http://www.w3.org/2000/svg" xmlns:xlink="http://www.w3.org/1999/xlink" width="64" viewBox="0 0 48 48" height="64" preserveAspectRatio="xMidYMid meet"><defs><clipPath id="42b8909af3"><path d="M 2.65625 2.167969 L 45.269531 2.167969 L 45.269531 44.78125 L 2.65625 44.78125 Z M 2.65625 2.167969 " clip-rule="nonzero"></path></clipPath></defs><g clip-path="url(#42b8909af3)"><path fill="#622627" d="M 23.996094 11.542969 C 30.605469 11.542969 35.960938 16.898438 35.960938 23.507812 C 35.960938 30.117188 30.605469 35.472656 23.996094 35.472656 C 17.390625 35.472656 12.035156 30.117188 12.035156 23.507812 C 12.035156 16.898438 17.390625 11.542969 23.996094 11.542969 Z M 31.507812 30.96875 C 33.410156 29.054688 34.585938 26.417969 34.585938 23.507812 C 34.585938 17.660156 29.84375 12.921875 23.996094 12.921875 C 18.148438 12.921875 13.410156 17.660156 13.410156 23.507812 C 13.410156 26.417969 14.585938 29.054688 16.488281 30.96875 C 17.488281 27.773438 20.472656 25.457031 23.996094 25.457031 C 27.519531 25.457031 30.503906 27.773438 31.507812 30.96875 Z M 23.996094 24.597656 C 21.808594 24.597656 20.015625 22.804688 20.015625 20.613281 C 20.015625 18.421875 21.808594 16.632812 23.996094 16.632812 C 26.1875 16.632812 27.980469 18.421875 27.980469 20.613281 C 27.980469 22.804688 26.1875 24.597656 23.996094 24.597656 Z M 43.949219 24.195312 L 39.996094 24.195312 L 40.546875 24.851562 C 40.792969 25.140625 40.753906 25.574219 40.464844 25.820312 C 40.171875 26.066406 39.738281 26.027344 39.496094 25.738281 L 37.988281 23.953125 C 37.773438 23.695312 37.773438 23.320312 37.988281 23.0625 L 39.496094 21.277344 C 39.738281 20.988281 40.171875 20.953125 40.464844 21.195312 C 40.753906 21.441406 40.792969 21.875 40.546875 22.167969 L 39.996094 22.820312 L 44.648438 22.820312 C 45.03125 22.820312 45.339844 23.128906 45.339844 23.507812 C 45.339844 33.875 37.929688 42.523438 28.125 44.449219 C 27.753906 44.523438 27.390625 44.277344 27.316406 43.90625 C 27.246094 43.53125 27.488281 43.171875 27.859375 43.097656 C 36.816406 41.339844 43.632812 33.585938 43.949219 24.195312 Z M 23.308594 7.507812 L 23.308594 2.855469 C 23.308594 2.476562 23.617188 2.167969 23.996094 2.167969 C 34.363281 2.167969 43.011719 9.574219 44.9375 19.378906 C 45.011719 19.753906 44.769531 20.113281 44.394531 20.1875 C 44.023438 20.261719 43.660156 20.019531 43.585938 19.644531 C 41.828125 10.691406 34.074219 3.875 24.6875 3.554688 L 24.6875 7.507812 L 25.339844 6.957031 C 25.628906 6.714844 26.066406 6.75 26.308594 7.042969 C 26.554688 7.332031 26.515625 7.765625 26.226562 8.011719 L 24.441406 9.515625 C 24.183594 9.730469 23.808594 9.730469 23.554688 9.515625 L 21.769531 8.011719 C 21.476562 7.765625 21.441406 7.332031 21.6875 7.042969 C 21.929688 6.75 22.367188 6.714844 22.65625 6.957031 Z M 4.046875 22.820312 L 8 22.820312 L 7.449219 22.167969 C 7.203125 21.875 7.242188 21.441406 7.53125 21.195312 C 7.820312 20.953125 8.257812 20.988281 8.5 21.277344 L 10.003906 23.0625 C 10.222656 23.320312 10.222656 23.695312 10.003906 23.953125 L 8.5 25.738281 C 8.257812 26.027344 7.820312 26.066406 7.53125 25.820312 C 7.242188 25.574219 7.203125 25.140625 7.449219 24.851562 L 8 24.195312 L 3.34375 24.195312 C 2.964844 24.195312 2.65625 23.886719 2.65625 23.507812 C 2.65625 13.140625 10.0625 4.492188 19.871094 2.566406 C 20.242188 2.492188 20.605469 2.738281 20.675781 3.109375 C 20.75 3.484375 20.507812 3.84375 20.132812 3.917969 C 11.179688 5.675781 4.363281 13.429688 4.046875 22.820312 Z M 23.308594 43.460938 L 23.308594 39.507812 L 22.65625 40.058594 C 22.367188 40.300781 21.929688 40.265625 21.6875 39.972656 C 21.441406 39.683594 21.476562 39.25 21.769531 39.003906 L 23.554688 37.5 C 23.808594 37.285156 24.183594 37.285156 24.441406 37.5 L 26.226562 39.003906 C 26.515625 39.25 26.554688 39.683594 26.308594 39.972656 C 26.066406 40.265625 25.628906 40.300781 25.339844 40.058594 L 24.6875 39.507812 L 24.6875 44.160156 C 24.6875 44.539062 24.378906 44.847656 23.996094 44.847656 C 13.632812 44.847656 4.980469 37.441406 3.058594 27.636719 C 2.984375 27.261719 3.226562 26.902344 3.601562 26.828125 C 3.972656 26.753906 4.335938 27 4.40625 27.371094 C 6.167969 36.324219 13.917969 43.140625 23.308594 43.460938 Z M 23.308594 43.460938 " fill-opacity="1" fill-rule="evenodd"></path></g></svg>