<svg xmlns="http://www.w3.org/2000/svg" xmlns:xlink="http://www.w3.org/1999/xlink" width="64" viewBox="0 0 48 48" height="64" preserveAspectRatio="xMidYMid meet"><defs><clipPath id="70ae5d929c"><path d="M 6.949219 1.222656 L 40.746094 1.222656 L 40.746094 46 L 6.949219 46 Z M 6.949219 1.222656 " clip-rule="nonzero"></path></clipPath></defs><g clip-path="url(#70ae5d929c)"><path fill="#622627" d="M 38.835938 13.351562 L 38.796875 15.691406 L 40.605469 17.257812 C 41.042969 17.648438 40.914062 18.398438 40.292969 18.578125 L 38.035156 19.265625 L 37.105469 21.476562 C 36.867188 22.046875 36.097656 22.09375 35.765625 21.605469 L 34.398438 19.648438 L 32.011719 19.4375 C 31.402344 19.386719 31.089844 18.6875 31.492188 18.1875 L 32.910156 16.308594 L 32.371094 13.980469 C 32.238281 13.421875 32.78125 12.863281 33.410156 13.113281 L 35.628906 13.871094 L 37.6875 12.632812 C 38.214844 12.300781 38.886719 12.730469 38.835938 13.351562 Z M 37.257812 16.019531 L 37.285156 14.652344 L 36.105469 15.359375 C 35.917969 15.46875 35.6875 15.5 35.46875 15.429688 L 34.167969 14.980469 L 34.46875 16.289062 C 34.527344 16.507812 34.488281 16.75 34.339844 16.949219 L 33.507812 18.039062 L 34.867188 18.15625 C 35.089844 18.179688 35.296875 18.289062 35.425781 18.476562 L 36.21875 19.605469 L 36.746094 18.347656 C 36.828125 18.148438 36.996094 17.976562 37.226562 17.917969 L 38.546875 17.519531 L 37.507812 16.621094 C 37.355469 16.46875 37.257812 16.25 37.257812 16.019531 Z M 12.953125 20.285156 L 10.167969 15.449219 C 9.875 15.539062 9.578125 15.601562 9.277344 15.621094 L 12.144531 20.597656 C 12.414062 20.507812 12.683594 20.40625 12.953125 20.285156 Z M 11.476562 14.679688 L 14.273438 19.515625 C 14.511719 19.347656 14.734375 19.167969 14.941406 18.96875 L 12.074219 13.992188 C 11.894531 14.25 11.707031 14.480469 11.476562 14.679688 Z M 12.253906 11.511719 C 12.394531 11.582031 12.503906 11.691406 12.574219 11.824219 L 16.550781 18.707031 C 16.722656 19.007812 16.671875 19.367188 16.460938 19.597656 C 15.890625 20.226562 15.171875 20.796875 14.394531 21.246094 C 13.613281 21.695312 12.773438 22.023438 11.933594 22.203125 C 11.59375 22.273438 11.257812 22.105469 11.097656 21.816406 L 7.128906 14.941406 C 7.050781 14.800781 7.027344 14.671875 7.027344 14.53125 L 6.960938 9.695312 C 6.949219 9.09375 7.609375 8.726562 8.117188 9.035156 Z M 8.539062 14.03125 C 9.066406 14.160156 9.617188 14.089844 10.097656 13.8125 C 10.566406 13.53125 10.917969 13.09375 11.066406 12.574219 L 8.496094 11.042969 Z M 15.832031 39.722656 L 15.960938 39.722656 L 15.960938 36.425781 C 11.59375 33.785156 9.277344 28.769531 10.125 23.695312 C 10.1875 23.324219 10.515625 23.054688 10.875 23.054688 L 33.898438 23.054688 C 34.296875 23.054688 34.617188 23.355469 34.660156 23.742188 C 34.738281 24.292969 34.757812 24.34375 34.796875 25.003906 C 34.828125 25.503906 34.828125 25.871094 34.808594 26.371094 C 34.796875 26.480469 34.796875 26.589844 34.789062 26.703125 L 37.765625 31.1875 C 38.054688 31.628906 37.824219 32.207031 37.328125 32.347656 L 34.738281 33.035156 L 34.738281 37.433594 C 34.738281 37.851562 34.398438 38.203125 33.980469 38.203125 L 27.203125 38.203125 L 27.203125 39.710938 L 27.511719 39.710938 C 29.183594 39.710938 30.542969 41.070312 30.542969 42.738281 L 30.542969 44.996094 C 30.542969 45.417969 30.203125 45.765625 29.78125 45.765625 L 14.222656 45.765625 C 13.804688 45.765625 13.464844 45.425781 13.464844 44.996094 L 13.464844 42.101562 C 13.453125 40.792969 14.523438 39.722656 15.832031 39.722656 Z M 27.503906 41.261719 L 15.832031 41.261719 C 15.371094 41.261719 14.992188 41.640625 14.992188 42.101562 L 14.992188 44.257812 L 29.003906 44.257812 L 29.003906 42.757812 C 29.003906 41.929688 28.324219 41.261719 27.503906 41.261719 Z M 33.28125 25.101562 C 33.269531 24.941406 33.25 24.773438 33.230469 24.59375 L 11.535156 24.59375 C 11.285156 26.980469 11.804688 29.320312 12.972656 31.308594 C 13.953125 32.96875 15.363281 34.347656 17.042969 35.296875 C 17.300781 35.414062 17.492188 35.683594 17.492188 35.996094 L 17.492188 39.730469 L 25.675781 39.730469 L 25.675781 37.464844 C 25.675781 37.042969 26.015625 36.703125 26.433594 36.703125 L 33.199219 36.703125 L 33.199219 32.488281 C 33.199219 32.148438 33.429688 31.835938 33.769531 31.746094 L 35.898438 31.179688 L 33.359375 27.351562 C 33.160156 27.050781 33.25 26.742188 33.28125 26.332031 Z M 32.238281 10.152344 C 32.660156 10.152344 33 10.492188 33 10.914062 C 33 11.332031 32.660156 11.671875 32.238281 11.671875 L 30.332031 11.671875 C 29.910156 11.671875 29.570312 11.332031 29.570312 10.914062 C 29.570312 10.492188 29.910156 10.152344 30.332031 10.152344 Z M 14.433594 11.683594 C 14.015625 11.683594 13.664062 11.34375 13.664062 10.921875 C 13.664062 10.503906 14.003906 10.164062 14.433594 10.164062 L 16.34375 10.164062 C 16.761719 10.164062 17.101562 10.503906 17.101562 10.921875 C 17.101562 11.34375 16.761719 11.683594 16.34375 11.683594 Z M 16.5 5.15625 C 16.203125 4.859375 16.203125 4.378906 16.5 4.078125 C 16.800781 3.777344 17.28125 3.777344 17.582031 4.078125 L 18.929688 5.425781 C 19.230469 5.726562 19.230469 6.207031 18.929688 6.507812 C 18.628906 6.804688 18.152344 6.804688 17.851562 6.507812 Z M 22.578125 2.011719 C 22.578125 1.589844 22.917969 1.25 23.335938 1.25 C 23.757812 1.25 24.097656 1.589844 24.097656 2.011719 L 24.097656 3.917969 C 24.097656 4.339844 23.757812 4.679688 23.335938 4.679688 C 22.917969 4.679688 22.578125 4.339844 22.578125 3.917969 Z M 29.09375 4.078125 C 29.390625 3.777344 29.871094 3.777344 30.171875 4.078125 C 30.472656 4.378906 30.472656 4.859375 30.171875 5.15625 L 28.824219 6.507812 C 28.523438 6.804688 28.042969 6.804688 27.742188 6.507812 C 27.445312 6.207031 27.445312 5.726562 27.742188 5.425781 Z M 26.714844 14.679688 C 27.671875 15.488281 27.535156 17.757812 26.246094 18.109375 C 24.664062 21.246094 21.996094 21.246094 20.417969 18.109375 C 19.128906 17.75 18.988281 15.46875 19.960938 14.671875 C 19.828125 14.480469 19.691406 14.3125 19.550781 14.140625 C 18.929688 13.402344 18.320312 12.671875 18.320312 10.882812 C 18.320312 8.117188 20.570312 5.867188 23.335938 5.867188 C 26.105469 5.867188 28.351562 8.117188 28.351562 10.882812 C 28.351562 12.683594 27.742188 13.410156 27.125 14.160156 C 26.984375 14.332031 26.84375 14.492188 26.714844 14.679688 Z M 24.445312 18.15625 L 22.226562 18.15625 C 22.976562 19.1875 23.6875 19.1875 24.445312 18.15625 Z M 25.886719 15.917969 L 20.789062 15.917969 C 20.699219 15.917969 20.898438 15.960938 20.886719 16 C 20.847656 16.160156 20.847656 16.378906 20.886719 16.539062 C 20.898438 16.578125 20.699219 16.621094 20.789062 16.621094 L 25.886719 16.621094 C 25.976562 16.621094 25.765625 16.578125 25.785156 16.539062 C 25.824219 16.378906 25.824219 16.148438 25.785156 16 C 25.765625 15.960938 25.976562 15.917969 25.886719 15.917969 Z M 25.796875 8.425781 C 24.4375 7.066406 22.226562 7.066406 20.867188 8.425781 C 20.238281 9.054688 19.847656 9.925781 19.847656 10.882812 C 19.847656 12.832031 20.886719 12.980469 21.558594 14.390625 L 25.125 14.390625 C 25.796875 13.003906 26.824219 12.832031 26.824219 10.882812 C 26.824219 9.925781 26.433594 9.046875 25.796875 8.425781 Z M 25.796875 8.425781 " fill-opacity="1" fill-rule="nonzero"></path></g></svg>