<svg xmlns="http://www.w3.org/2000/svg" xmlns:xlink="http://www.w3.org/1999/xlink" width="64" viewBox="0 0 48 48" height="64" preserveAspectRatio="xMidYMid meet"><defs><clipPath id="e4f487b748"><path d="M 5.191406 2.839844 L 43.394531 2.839844 L 43.394531 42 L 5.191406 42 Z M 5.191406 2.839844 " clip-rule="nonzero"></path></clipPath></defs><g clip-path="url(#e4f487b748)"><path fill="#622627" d="M 12.507812 33.917969 C 12.507812 35.179688 11.484375 36.203125 10.21875 36.203125 C 8.957031 36.203125 7.933594 35.179688 7.933594 33.917969 C 7.933594 32.65625 8.957031 31.628906 10.21875 31.628906 C 11.484375 31.628906 12.507812 32.65625 12.507812 33.917969 Z M 24.425781 7.410156 C 25.6875 7.410156 26.714844 6.386719 26.714844 5.121094 C 26.714844 3.859375 25.6875 2.835938 24.425781 2.835938 C 23.164062 2.835938 22.140625 3.859375 22.140625 5.121094 C 22.140625 6.386719 23.164062 7.410156 24.425781 7.410156 Z M 35.710938 15.402344 L 38.203125 19.71875 C 38.304688 19.890625 38.324219 20.09375 38.273438 20.273438 C 38.226562 20.449219 38.117188 20.609375 37.949219 20.710938 C 37.9375 20.714844 37.929688 20.722656 37.917969 20.726562 C 37.75 20.820312 37.554688 20.839844 37.378906 20.792969 C 37.195312 20.742188 37.035156 20.625 36.933594 20.449219 L 34.453125 16.15625 C 34.445312 16.144531 34.441406 16.132812 34.433594 16.121094 C 34.339844 15.949219 34.324219 15.757812 34.371094 15.582031 C 34.417969 15.402344 34.527344 15.246094 34.695312 15.144531 C 34.707031 15.136719 34.714844 15.132812 34.726562 15.125 C 34.894531 15.03125 35.089844 15.015625 35.265625 15.0625 C 35.449219 15.113281 35.613281 15.230469 35.710938 15.402344 Z M 37.179688 20.179688 C 37.285156 20.359375 37.519531 20.421875 37.703125 20.316406 C 37.886719 20.210938 37.949219 19.980469 37.84375 19.796875 C 37.738281 19.613281 37.503906 19.550781 37.320312 19.65625 C 37.136719 19.761719 37.074219 19.996094 37.179688 20.179688 Z M 28.847656 11.753906 C 28.40625 9.714844 26.59375 8.1875 24.425781 8.1875 C 22.257812 8.1875 20.445312 9.714844 20.003906 11.753906 C 19.953125 12 20.136719 12.226562 20.386719 12.226562 L 28.464844 12.226562 C 28.714844 12.226562 28.898438 12 28.847656 11.753906 Z M 16.703125 26.097656 C 16.8125 25.835938 16.820312 25.53125 16.644531 25.1875 C 15.976562 23.902344 16.0625 23.3125 16.851562 23.300781 C 17.375 23.289062 18.355469 23.738281 19.757812 24.550781 L 21.9375 25.808594 C 21.945312 25.527344 21.949219 25.21875 21.953125 24.882812 C 21.921875 24.878906 21.890625 24.867188 21.863281 24.851562 L 19.417969 23.4375 C 19.273438 23.355469 19.222656 23.171875 19.308594 23.027344 C 19.390625 22.882812 19.574219 22.835938 19.71875 22.917969 L 21.953125 24.210938 L 21.953125 23.238281 C 21.898438 23.242188 21.839844 23.226562 21.789062 23.199219 L 19.796875 22.046875 C 19.652344 21.964844 19.601562 21.78125 19.683594 21.636719 C 19.769531 21.496094 19.949219 21.445312 20.09375 21.527344 L 21.953125 22.601562 L 21.953125 21.683594 L 19.902344 20.5 C 19.757812 20.417969 19.707031 20.234375 19.789062 20.089844 C 19.871094 19.945312 20.054688 19.898438 20.199219 19.980469 L 21.953125 20.992188 L 21.953125 20.582031 C 21.953125 20.421875 21.988281 20.269531 22.050781 20.132812 L 18.117188 17.863281 C 17.386719 17.441406 16.796875 17.414062 16.222656 17.386719 C 15.695312 17.363281 15.175781 17.339844 14.566406 17.066406 L 12.796875 20.132812 C 13.820312 20.953125 14.453125 22.65625 15.085938 24.339844 C 15.410156 25.214844 15.734375 26.082031 16.101562 26.800781 C 16.351562 26.617188 16.582031 26.378906 16.703125 26.097656 Z M 14.410156 16.136719 L 14.195312 16.511719 C 14.191406 16.515625 14.1875 16.523438 14.183594 16.527344 L 14.183594 16.53125 L 12.148438 20.054688 L 12.148438 20.058594 C 12.140625 20.066406 12.136719 20.074219 12.132812 20.082031 L 11.929688 20.4375 C 11.925781 20.441406 11.921875 20.445312 11.917969 20.453125 C 11.820312 20.625 11.65625 20.742188 11.472656 20.792969 C 11.296875 20.839844 11.101562 20.820312 10.933594 20.730469 C 10.921875 20.722656 10.914062 20.714844 10.902344 20.710938 C 10.738281 20.609375 10.625 20.449219 10.578125 20.273438 C 10.527344 20.09375 10.546875 19.894531 10.648438 19.71875 L 13.128906 15.417969 C 13.132812 15.414062 13.136719 15.410156 13.140625 15.402344 C 13.242188 15.230469 13.402344 15.113281 13.585938 15.0625 C 13.761719 15.015625 13.957031 15.035156 14.128906 15.125 C 14.132812 15.128906 14.136719 15.132812 14.140625 15.132812 C 14.316406 15.234375 14.433594 15.398438 14.480469 15.582031 C 14.53125 15.761719 14.511719 15.960938 14.410156 16.136719 Z M 11.53125 19.65625 C 11.347656 19.550781 11.113281 19.613281 11.007812 19.796875 C 10.902344 19.980469 10.964844 20.210938 11.148438 20.316406 C 11.332031 20.421875 11.566406 20.359375 11.671875 20.179688 C 11.777344 19.996094 11.714844 19.761719 11.53125 19.65625 Z M 38.632812 36.203125 C 39.894531 36.203125 40.917969 35.179688 40.917969 33.917969 C 40.917969 32.65625 39.894531 31.632812 38.632812 31.632812 C 37.367188 31.632812 36.34375 32.65625 36.34375 33.917969 C 36.34375 35.179688 37.367188 36.203125 38.632812 36.203125 Z M 8.472656 31.019531 C 8.789062 30.890625 8.945312 30.527344 8.816406 30.207031 C 6.523438 24.570312 7.464844 18.058594 11.324219 13.289062 C 13.710938 10.34375 17.070312 8.214844 20.917969 7.402344 C 21.253906 7.328125 21.46875 7 21.398438 6.664062 C 21.324219 6.328125 20.996094 6.113281 20.660156 6.183594 C 16.53125 7.058594 12.921875 9.339844 10.359375 12.507812 C 6.210938 17.636719 5.199219 24.613281 7.660156 30.675781 C 7.789062 30.996094 8.152344 31.148438 8.472656 31.019531 Z M 27.933594 7.402344 C 31.78125 8.214844 35.140625 10.34375 37.527344 13.289062 C 41.386719 18.058594 42.324219 24.570312 40.035156 30.207031 C 39.90625 30.527344 40.0625 30.890625 40.378906 31.019531 C 40.699219 31.148438 41.0625 30.996094 41.191406 30.675781 C 43.652344 24.613281 42.644531 17.636719 38.492188 12.507812 C 35.929688 9.339844 32.320312 7.058594 28.191406 6.183594 C 27.855469 6.113281 27.527344 6.328125 27.453125 6.664062 C 27.382812 7 27.597656 7.328125 27.933594 7.402344 Z M 43.054688 40.550781 C 42.613281 38.511719 40.800781 36.984375 38.632812 36.984375 C 36.460938 36.984375 34.648438 38.511719 34.210938 40.550781 C 34.15625 40.792969 34.339844 41.019531 34.589844 41.019531 L 42.671875 41.019531 C 42.921875 41.019531 43.105469 40.792969 43.054688 40.550781 Z M 32.542969 38.636719 C 27.511719 41.410156 21.339844 41.410156 16.308594 38.636719 C 16.007812 38.472656 15.628906 38.582031 15.464844 38.882812 C 15.300781 39.183594 15.410156 39.5625 15.710938 39.730469 C 21.117188 42.707031 27.734375 42.707031 33.140625 39.730469 C 33.441406 39.5625 33.550781 39.183594 33.386719 38.882812 C 33.222656 38.582031 32.84375 38.472656 32.542969 38.636719 Z M 27.710938 34.457031 C 27.941406 34.457031 28.152344 34.554688 28.308594 34.707031 C 28.460938 34.863281 28.558594 35.074219 28.558594 35.304688 C 28.558594 35.539062 28.460938 35.75 28.308594 35.902344 C 28.152344 36.058594 27.941406 36.152344 27.710938 36.152344 L 22.175781 36.152344 C 21.945312 36.152344 21.730469 36.058594 21.578125 35.902344 C 21.425781 35.75 21.328125 35.539062 21.328125 35.304688 C 21.328125 35.074219 21.425781 34.863281 21.578125 34.707031 C 21.730469 34.554688 21.945312 34.457031 22.175781 34.457031 Z M 22.726562 35.304688 C 22.726562 35.070312 22.535156 34.882812 22.300781 34.882812 C 22.066406 34.882812 21.878906 35.070312 21.878906 35.304688 C 21.878906 35.539062 22.066406 35.730469 22.300781 35.730469 C 22.535156 35.730469 22.726562 35.539062 22.726562 35.304688 Z M 27.667969 22.976562 C 27.539062 22.976562 27.421875 23.027344 27.335938 23.113281 C 27.25 23.199219 27.195312 23.316406 27.195312 23.449219 L 27.195312 26.789062 C 27.195312 26.953125 27.0625 27.089844 26.894531 27.089844 C 26.730469 27.089844 26.59375 26.953125 26.59375 26.789062 L 26.59375 20.789062 C 26.59375 20.660156 26.539062 20.539062 26.453125 20.453125 C 26.367188 20.367188 26.25 20.316406 26.121094 20.316406 C 25.992188 20.316406 25.875 20.367188 25.789062 20.453125 C 25.703125 20.539062 25.648438 20.660156 25.648438 20.789062 L 25.648438 26.03125 C 25.648438 26.195312 25.515625 26.332031 25.347656 26.332031 C 25.183594 26.332031 25.046875 26.195312 25.046875 26.03125 L 25.046875 19.710938 C 25.046875 19.582031 24.992188 19.464844 24.90625 19.378906 C 24.820312 19.292969 24.703125 19.238281 24.574219 19.238281 C 24.445312 19.238281 24.328125 19.292969 24.242188 19.378906 C 24.15625 19.464844 24.101562 19.582031 24.101562 19.710938 L 24.101562 25.621094 C 24.101562 25.789062 23.96875 25.921875 23.800781 25.921875 C 23.632812 25.921875 23.5 25.789062 23.5 25.621094 L 23.5 20.582031 C 23.5 20.453125 23.445312 20.335938 23.359375 20.25 C 23.273438 20.164062 23.15625 20.109375 23.027344 20.109375 C 22.898438 20.109375 22.78125 20.164062 22.695312 20.25 C 22.609375 20.335938 22.554688 20.453125 22.554688 20.582031 L 22.554688 24.675781 C 22.554688 25.292969 22.542969 25.835938 22.511719 26.304688 C 22.511719 26.324219 22.511719 26.34375 22.507812 26.359375 C 22.453125 27.230469 22.339844 27.832031 22.148438 28.152344 C 21.714844 28.871094 21.121094 28.625 20.273438 27.300781 C 20.035156 26.929688 19.726562 26.765625 19.40625 26.722656 C 19.050781 26.679688 18.671875 26.777344 18.34375 26.925781 C 18.832031 27.691406 19.5 28.496094 20.167969 29.308594 C 21.445312 30.855469 22.734375 32.417969 22.941406 33.855469 L 26.933594 33.855469 C 27.003906 33.109375 27.269531 32.59375 27.542969 32.070312 C 27.839844 31.5 28.140625 30.914062 28.140625 29.964844 L 28.140625 23.449219 C 28.140625 23.316406 28.085938 23.199219 28.003906 23.113281 C 27.917969 23.027344 27.796875 22.976562 27.667969 22.976562 Z M 10.21875 36.984375 C 8.050781 36.984375 6.238281 38.511719 5.796875 40.550781 C 5.746094 40.792969 5.929688 41.019531 6.179688 41.019531 L 14.261719 41.019531 C 14.511719 41.019531 14.695312 40.792969 14.640625 40.550781 C 14.203125 38.511719 12.390625 36.984375 10.21875 36.984375 Z M 36.054688 20.132812 L 34.285156 17.066406 C 33.675781 17.339844 33.15625 17.363281 32.628906 17.386719 C 32.054688 17.414062 31.464844 17.441406 30.734375 17.863281 L 26.914062 20.066406 C 27.089844 20.257812 27.195312 20.511719 27.195312 20.789062 L 27.195312 20.820312 L 28.652344 19.980469 C 28.796875 19.898438 28.980469 19.949219 29.0625 20.089844 C 29.144531 20.234375 29.09375 20.417969 28.953125 20.5 L 27.195312 21.511719 L 27.195312 22.484375 C 27.320312 22.421875 27.457031 22.386719 27.601562 22.375 C 27.597656 22.269531 27.652344 22.164062 27.75 22.109375 L 28.757812 21.527344 C 28.898438 21.445312 29.082031 21.492188 29.167969 21.636719 C 29.25 21.78125 29.199219 21.964844 29.058594 22.046875 L 28.222656 22.527344 C 28.296875 22.574219 28.367188 22.628906 28.425781 22.6875 C 28.558594 22.820312 28.65625 22.984375 28.707031 23.167969 L 29.132812 22.917969 C 29.277344 22.835938 29.460938 22.882812 29.542969 23.027344 C 29.628906 23.171875 29.578125 23.355469 29.433594 23.4375 L 28.742188 23.839844 L 28.742188 24.753906 L 29.09375 24.550781 C 30.496094 23.738281 31.476562 23.289062 32 23.300781 C 32.789062 23.316406 32.875 23.902344 32.207031 25.1875 C 32.03125 25.53125 32.039062 25.835938 32.148438 26.097656 C 32.269531 26.378906 32.5 26.617188 32.75 26.800781 C 33.117188 26.082031 33.441406 25.214844 33.769531 24.34375 C 34.398438 22.65625 35.035156 20.953125 36.054688 20.132812 Z M 36.054688 20.132812 " fill-opacity="1" fill-rule="nonzero"></path></g></svg>